<?xml version="1.0" standalone="no"?>
<!DOCTYPE svg PUBLIC "-//W3C//DTD SVG 1.1//EN" "http://www.w3.org/Graphics/SVG/1.1/DTD/svg11.dtd" >
<svg xmlns="http://www.w3.org/2000/svg" xmlns:xlink="http://www.w3.org/1999/xlink" version="1.1">
<metadata>
Created by FontForge 20170731 at Fri Nov  2 22:21:39 2018
 By Aleksey,,,
Copyright David Neustadt 2009
</metadata>
<defs>
<font id="mikado" horiz-adv-x="218" >
  <font-face 
    font-family="mikado"
    font-weight="400"
    font-stretch="normal"
    units-per-em="1024"
    panose-1="0 0 4 0 0 0 0 0 0 0"
    ascent="819"
    descent="-205"
    x-height="316"
    bbox="-48 -166 369 482"
    underline-thickness="51"
    underline-position="26"
    unicode-range="U+0020-007A"
  />
<missing-glyph horiz-adv-x="371" 
d="M300 50l-116 170l-115 -170h231zM50 69l115 171l-115 170v-341v0zM319 69v341l-116 -170l116 -171v0zM184 259l116 171h-231l115 -171v0zM0 0v480h369v-480h-369z" />
    <glyph glyph-name=".notdef" horiz-adv-x="371" 
d="M300 50l-116 170l-115 -170h231zM50 69l115 171l-115 170v-341v0zM319 69v341l-116 -170l116 -171v0zM184 259l116 171h-231l115 -171v0zM0 0v480h369v-480h-369z" />
    <glyph glyph-name="glyph1" horiz-adv-x="2" 
 />
    <glyph glyph-name="glyph2" horiz-adv-x="2" 
 />
    <glyph glyph-name="space" unicode=" " horiz-adv-x="136" 
 />
    <glyph glyph-name="exclam" unicode="!" horiz-adv-x="90" 
d="M32 4v20h-16l-10 -20h26zM36 8l8 16h-8v-16v0zM4 8l10 20v10h-10v-30v0zM32 28v10h-14v-10h14zM14 42v16l-8 -16h8zM46 28v30l-10 -20v-10h10zM34 42l10 20h-26v-20h16zM0 0v38l14 28h36v-38l-14 -28h-36zM32 92v20h-16l-10 -20h26zM36 96l8 16h-8v-16v0zM4 96l10 20v338
h-10v-358v0zM32 116v338h-14v-338h14zM14 458v16l-8 -16h8zM46 116v358l-10 -20v-338h10zM34 458l10 20h-26v-20h16zM0 88v366l14 28h36v-366l-14 -28h-36z" />
    <glyph glyph-name="comma" unicode="," horiz-adv-x="90" 
d="M32 -38v20h-16l-10 -20h26zM36 -34l8 16h-8v-16v0zM4 -34l10 20v52h-10v-72v0zM32 -14v52h-14v-52h14zM14 42v16l-8 -16h8zM46 -14v72l-10 -20v-52h10zM34 42l10 20h-26v-20h16zM0 -42v80l14 28h36v-80l-14 -28h-36z" />
    <glyph glyph-name="period" unicode="." horiz-adv-x="90" 
d="M32 4v20h-16l-10 -20h26zM36 8l8 16h-8v-16v0zM4 8l10 20v10h-10v-30v0zM32 28v10h-14v-10h14zM14 42v16l-8 -16h8zM46 28v30l-10 -20v-10h10zM34 42l10 20h-26v-20h16zM0 0v38l14 28h36v-38l-14 -28h-36z" />
    <glyph glyph-name="question" unicode="?" 
d="M94 4v20h-16l-10 -20h26zM98 8l8 16h-8v-16v0zM66 8l10 20v10h-10v-30v0zM94 28v10h-14v-10h14zM76 42v16l-8 -16h8zM108 28v30l-10 -20v-10h10zM96 42l10 20h-26v-20h16zM62 0v38l14 28h36v-38l-14 -28h-36zM94 92v20h-16l-10 -20h26zM98 96l8 16h-8v-16v0zM108 116v100
h-10v-100h10zM108 220v16l-8 -16h8zM160 220v20h-48v-20h48zM164 224l8 16h-8v-16v0zM66 96l10 20v136h-10v-156v0zM76 256v16l-8 -16h8zM128 256v20h-48v-20h48zM132 260l8 16h-8v-16v0zM32 382v20h-16l-10 -20h26zM36 386l8 16h-8v-16v0zM46 406v12h-10v-12h10zM46 422v16
l-8 -16h8zM142 280v158l-10 -20v-138h10zM130 422l10 20h-90v-20h80zM4 386l10 20v48h-10v-68v0zM94 116v100l14 28h52v210h-142v-48h14v12l14 28h100v-166l-14 -28h-52v-136h14zM14 458v16l-8 -16h8zM174 244v230l-10 -20v-210h10zM162 458l10 20h-154v-20h144zM62 88v164
l14 28h52v138h-78v-12l-14 -28h-36v76l14 28h164v-238l-14 -28h-52v-100l-14 -28h-36z" />
    <glyph glyph-name="a" unicode="a" 
d="M160 4v20h-144l-10 -20h154zM164 8l8 16h-8v-16v0zM128 40v20h-80l-10 -20h90zM132 44l8 16h-8v-16v0zM36 44l10 20v60h-10v-80v0zM128 64v60h-78v-60h78zM46 128v16l-8 -16h8zM142 64v80l-10 -20v-60h10zM130 128l10 20h-90v-20h80zM32 36v88l14 28h100v-88l-14 -28
h-100zM4 8l10 20v132h-10v-152v0zM14 164v16l-8 -16h8zM128 164v20h-110v-20h110zM132 168l8 16h-8v-16v0zM32 216v20h-16l-10 -20h26zM36 220l8 16h-8v-16v0zM46 240v12h-10v-12h10zM46 256v16l-8 -16h8zM142 188v84l-10 -20v-64h10zM130 256l10 20h-90v-20h80zM4 220
l10 20v48h-10v-68v0zM160 28v260h-142v-48h14v12l14 28h100v-92l-14 -28h-114v-132h142zM14 292v16l-8 -16h8zM174 28v280l-10 -20v-260h10zM162 292l10 20h-154v-20h144zM0 0v160l14 28h114v64h-78v-12l-14 -28h-36v76l14 28h164v-288l-14 -28h-164z" />
    <glyph glyph-name="b" unicode="b" 
d="M160 4v20h-144l-10 -20h154zM164 8l8 16h-8v-16v0zM128 40v20h-80l-10 -20h90zM132 44l8 16h-8v-16v0zM36 44l10 20v188h-10v-208v0zM128 64v188h-78v-188h78zM46 256v16l-8 -16h8zM142 64v208l-10 -20v-188h10zM130 256l10 20h-90v-20h80zM32 36v216l14 28h100v-216
l-14 -28h-100zM174 28v280l-10 -20v-260h10zM162 292l10 20h-124l-10 -20h124zM4 8l10 20v426h-10v-446v0zM160 28v260h-128v166h-14v-426h142zM14 458v16l-8 -16h8zM36 296l10 20v158l-10 -20v-158v0zM34 458l10 20h-26v-20h16zM0 0v454l14 28h36v-166h128v-288l-14 -28
h-164z" />
    <glyph glyph-name="c" unicode="c" 
d="M160 4v20h-144l-10 -20h154zM164 8l8 16h-8v-16v0zM128 40v20h-80l-10 -20h90zM132 44l8 16h-8v-16v0zM142 64v12h-10v-12h10zM142 80v16l-8 -16h8zM174 28v68l-10 -20v-48h10zM162 80l10 20h-26v-20h16zM160 216v20h-16l-10 -20h26zM164 220l8 16h-8v-16v0zM36 44l10 20
v188h-10v-208v0zM46 256v16l-8 -16h8zM132 220l10 20v32l-10 -20v-32v0zM130 256l10 20h-90v-20h80zM4 8l10 20v260h-10v-280v0zM160 28v48h-14v-12l-14 -28h-100v216l14 28h100v-40h14v48h-142v-260h142zM14 292v16l-8 -16h8zM174 240v68l-10 -20v-48h10zM162 292l10 20
h-154v-20h144zM0 0v288l14 28h164v-76l-14 -28h-36v40h-78v-188h78v12l14 28h36v-76l-14 -28h-164z" />
    <glyph glyph-name="d" unicode="d" 
d="M160 4v20h-144l-10 -20h154zM164 8l8 16h-8v-16v0zM128 40v20h-80l-10 -20h90zM132 44l8 16h-8v-16v0zM36 44l10 20v188h-10v-208v0zM128 64v188h-78v-188h78zM46 256v16l-8 -16h8zM142 64v208l-10 -20v-188h10zM130 256l10 20h-90v-20h80zM32 36v216l14 28h100v-216
l-14 -28h-100zM4 8l10 20v260h-10v-280v0zM14 292v16l-8 -16h8zM128 292v20h-110v-20h110zM132 296l8 16h-8v-16v0zM142 316v138h-10v-138h10zM160 28v426h-14v-138l-14 -28h-114v-260h142zM142 458v16l-8 -16h8zM174 28v446l-10 -20v-426h10zM162 458l10 20h-26v-20h16z
M0 0v288l14 28h114v138l14 28h36v-454l-14 -28h-164z" />
    <glyph glyph-name="e" unicode="e" 
d="M160 4v20h-144l-10 -20h154zM164 8l8 16h-8v-16v0zM128 40v20h-80l-10 -20h90zM132 44l8 16h-8v-16v0zM142 64v12h-10v-12h10zM142 80v16l-8 -16h8zM174 28v68l-10 -20v-48h10zM162 80l10 20h-26v-20h16zM36 44l10 20v60h-10v-80v0zM46 128v16l-8 -16h8zM160 128v20h-110
v-20h110zM164 132l8 16h-8v-16v0zM128 164v20h-80l-10 -20h90zM132 168l8 16h-8v-16v0zM36 168l10 20v64h-10v-84v0zM128 188v64h-78v-64h78zM46 256v16l-8 -16h8zM142 188v84l-10 -20v-64h10zM130 256l10 20h-90v-20h80zM32 160v92l14 28h100v-92l-14 -28h-100zM4 8l10 20
v260h-10v-280v0zM160 28v48h-14v-12l-14 -28h-100v88l14 28h114v136h-142v-260h142zM14 292v16l-8 -16h8zM174 152v156l-10 -20v-136h10zM162 292l10 20h-154v-20h144zM0 0v288l14 28h164v-164l-14 -28h-114v-60h78v12l14 28h36v-76l-14 -28h-164z" />
    <glyph glyph-name="f" unicode="f" horiz-adv-x="194" 
d="M68 4v20h-16l-10 -20h26zM72 8l8 16h-8v-16v0zM82 28v224h-10v-224h10zM40 8l10 20v244l-10 -20v-244v0zM82 256v16l-8 -16h8zM38 256l10 20h-32l-10 -20h32zM140 256v20h-54v-20h54zM144 260l8 16h-8v-16v0zM4 260l10 20v8h-10v-28v0zM14 292v16l-8 -16h8zM154 280v28
l-10 -20v-8h10zM36 292v20h-18v-20h18zM40 296l8 16h-8v-16v0zM142 292l10 20h-68l-10 -20h68zM50 316v102h-10v-102h10zM68 28v224l14 28h58v8h-72v130h-14v-102l-14 -28h-22v-8h36v-252h14zM72 296l10 20v102h-10v-122v0zM50 422v16l-8 -16h8zM82 422v16l-8 -16h8zM68 422
v20h-14v-20h14zM72 426l8 16h-8v-16v0zM140 422v20h-54v-20h54zM144 426l8 16h-8v-16v0zM82 446v8h-10v-8h10zM140 446v8h-54v-8h54zM82 458v16l-8 -16h8zM154 446v28l-10 -20v-8h10zM142 458l10 20h-66v-20h56zM36 0v252h-36v36l14 28h22v102l14 28h18v8l14 28h76v-36
l-14 -28h-58v-102h72v-36l-14 -28h-58v-224l-14 -28h-36z" />
    <glyph glyph-name="g" unicode="g" 
d="M160 -162v20h-144l-10 -20h154zM164 -158l8 16h-8v-16v0zM128 -126v20h-80l-10 -20h90zM132 -122l8 16h-8v-16v0zM4 -158l10 20v56h-10v-76v0zM14 -78v16l-8 -16h8zM36 -122l10 20v40l-10 -20v-40v0zM34 -78l10 20h-26v-20h16zM142 -102v122l-10 -20v-102h10zM130 4
l10 20h-124l-10 -20h124zM128 40v20h-80l-10 -20h90zM132 44l8 16h-8v-16v0zM36 44l10 20v188h-10v-208v0zM128 64v188h-78v-188h78zM46 256v16l-8 -16h8zM142 64v208l-10 -20v-188h10zM130 256l10 20h-90v-20h80zM32 36v216l14 28h100v-216l-14 -28h-100zM4 8l10 20v260
h-10v-280v0zM160 -138v426h-142v-260h128v-130l-14 -28h-100v48h-14v-56h142zM14 292v16l-8 -16h8zM174 -138v446l-10 -20v-426h10zM162 292l10 20h-154v-20h144zM0 -166v84l14 28h36v-48h78v102h-128v288l14 28h164v-454l-14 -28h-164z" />
    <glyph glyph-name="h" unicode="h" 
d="M32 4v20h-16l-10 -20h26zM36 8l8 16h-8v-16v0zM160 4v20h-16l-10 -20h26zM164 8l8 16h-8v-16v0zM46 28v224h-10v-224h10zM46 256v16l-8 -16h8zM132 8l10 20v244l-10 -20v-244v0zM130 256l10 20h-90v-20h80zM174 28v280l-10 -20v-260h10zM162 292l10 20h-124l-10 -20h124z
M4 8l10 20v426h-10v-446v0zM160 28v260h-128v166h-14v-426h14v224l14 28h100v-252h14zM14 458v16l-8 -16h8zM36 296l10 20v158l-10 -20v-158v0zM34 458l10 20h-26v-20h16zM0 0v454l14 28h36v-166h128v-288l-14 -28h-36v252h-78v-224l-14 -28h-36z" />
    <glyph glyph-name="i" unicode="i" horiz-adv-x="90" 
d="M32 4v20h-16l-10 -20h26zM36 8l8 16h-8v-16v0zM4 8l10 20v260h-10v-280v0zM32 28v260h-14v-260h14zM14 292v16l-8 -16h8zM46 28v280l-10 -20v-260h10zM34 292l10 20h-26v-20h16zM0 0v288l14 28h36v-288l-14 -28h-36zM32 356v20h-16l-10 -20h26zM36 360l8 16h-8v-16v0z
M4 360l10 20v10h-10v-30v0zM32 380v10h-14v-10h14zM14 394v16l-8 -16h8zM46 380v30l-10 -20v-10h10zM34 394l10 20h-26v-20h16zM0 352v38l14 28h36v-38l-14 -28h-36z" />
    <glyph glyph-name="j" unicode="j" horiz-adv-x="90" 
d="M32 -162v20h-64l-10 -20h74zM36 -158l8 16h-8v-16v0zM-44 -158l10 20v8h-10v-28v0zM-34 -126v16l-8 -16h8zM0 -126v20h-30v-20h30zM4 -122l8 16h-8v-16v0zM14 -102v390h-10v-390h10zM32 -138v426h-14v-390l-14 -28h-34v-8h62zM14 292v16l-8 -16h8zM46 -138v446l-10 -20
v-426h10zM34 292l10 20h-26v-20h16zM-48 -166v36l14 28h34v390l14 28h36v-454l-14 -28h-84zM32 356v20h-16l-10 -20h26zM36 360l8 16h-8v-16v0zM4 360l10 20v10h-10v-30v0zM32 380v10h-14v-10h14zM14 394v16l-8 -16h8zM46 380v30l-10 -20v-10h10zM34 394l10 20h-26v-20h16z
M0 352v38l14 28h36v-38l-14 -28h-36z" />
    <glyph glyph-name="k" unicode="k" 
d="M32 4v20h-16l-10 -20h26zM36 8l8 16h-8v-16v0zM160 4v20h-16l-10 -20h26zM164 8l8 16h-8v-16v0zM132 8l10 20v80l-10 -20v-80v0zM130 92l10 20h-26l-10 -20h26zM46 28v96h-10v-96h10zM46 128v16l-8 -16h8zM102 96l10 20v28l-10 -20v-28v0zM174 28v116l-10 -20v-96h10z
M100 128l10 20h-60v-20h50zM162 128l10 20h-28l-10 -20h28zM96 164v20h-48l-10 -20h58zM100 168l8 16h-8v-16v0zM132 132l10 20v32h-10v-52v0zM142 188v16l-8 -16h8zM160 188v20h-14v-20h14zM164 192l8 16h-8v-16v0zM110 188v32h-10v-32h10zM110 224v16l-8 -16h8zM128 224
v20h-14v-20h14zM132 228l8 16h-8v-16v0zM142 248v40h-10v-40h10zM142 292v16l-8 -16h8zM174 212v96l-10 -20v-76h10zM162 292l10 20h-26v-20h16zM4 8l10 20v426h-10v-446v0zM160 28v96h-32v60l14 28h18v76h-14v-40l-14 -28h-18v-32l-14 -28h-68v294h-14v-426h14v96l14 28h70
v-36h30v-88h14zM14 458v16l-8 -16h8zM36 168l10 20v286l-10 -20v-286v0zM34 458l10 20h-26v-20h16zM0 0v454l14 28h36v-294h46v32l14 28h18v40l14 28h36v-104l-14 -28h-18v-32h32v-124l-14 -28h-36v88h-30v36h-48v-96l-14 -28h-36z" />
    <glyph glyph-name="l" unicode="l" horiz-adv-x="90" 
d="M32 4v20h-16l-10 -20h26zM36 8l8 16h-8v-16v0zM4 8l10 20v426h-10v-446v0zM32 28v426h-14v-426h14zM14 458v16l-8 -16h8zM46 28v446l-10 -20v-426h10zM34 458l10 20h-26v-20h16zM0 0v454l14 28h36v-454l-14 -28h-36z" />
    <glyph glyph-name="m" unicode="m" horiz-adv-x="346" 
d="M32 4v20h-16l-10 -20h26zM36 8l8 16h-8v-16v0zM160 4v20h-16l-10 -20h26zM164 8l8 16h-8v-16v0zM288 4v20h-16l-10 -20h26zM292 8l8 16h-8v-16v0zM46 28v224h-10v-224h10zM174 28v224h-10v-224h10zM46 256v16l-8 -16h8zM132 8l10 20v244l-10 -20v-244v0zM174 256v16
l-8 -16h8zM260 8l10 20v244l-10 -20v-244v0zM130 256l10 20h-90v-20h80zM258 256l10 20h-90v-20h80zM4 8l10 20v260h-10v-280v0zM288 28v260h-270v-260h14v224l14 28h100v-252h14v224l14 28h100v-252h14zM14 292v16l-8 -16h8zM302 28v280l-10 -20v-260h10zM290 292l10 20
h-282v-20h272zM0 0v288l14 28h292v-288l-14 -28h-36v252h-78v-224l-14 -28h-36v252h-78v-224l-14 -28h-36z" />
    <glyph glyph-name="n" unicode="n" 
d="M32 4v20h-16l-10 -20h26zM36 8l8 16h-8v-16v0zM160 4v20h-16l-10 -20h26zM164 8l8 16h-8v-16v0zM46 28v224h-10v-224h10zM46 256v16l-8 -16h8zM132 8l10 20v244l-10 -20v-244v0zM130 256l10 20h-90v-20h80zM4 8l10 20v260h-10v-280v0zM160 28v260h-142v-260h14v224l14 28
h100v-252h14zM14 292v16l-8 -16h8zM174 28v280l-10 -20v-260h10zM162 292l10 20h-154v-20h144zM0 0v288l14 28h164v-288l-14 -28h-36v252h-78v-224l-14 -28h-36z" />
    <glyph glyph-name="o" unicode="o" 
d="M160 4v20h-144l-10 -20h154zM164 8l8 16h-8v-16v0zM128 40v20h-80l-10 -20h90zM132 44l8 16h-8v-16v0zM36 44l10 20v188h-10v-208v0zM128 64v188h-78v-188h78zM46 256v16l-8 -16h8zM142 64v208l-10 -20v-188h10zM130 256l10 20h-90v-20h80zM32 36v216l14 28h100v-216
l-14 -28h-100zM4 8l10 20v260h-10v-280v0zM160 28v260h-142v-260h142zM14 292v16l-8 -16h8zM174 28v280l-10 -20v-260h10zM162 292l10 20h-154v-20h144zM0 0v288l14 28h164v-288l-14 -28h-164z" />
    <glyph glyph-name="p" unicode="p" 
d="M32 -162v20h-16l-10 -20h26zM36 -158l8 16h-8v-16v0zM46 -138v138h-10v-138h10zM46 4v16l-8 -16h8zM160 4v20h-110v-20h110zM164 8l8 16h-8v-16v0zM128 40v20h-80l-10 -20h90zM132 44l8 16h-8v-16v0zM36 44l10 20v188h-10v-208v0zM128 64v188h-78v-188h78zM46 256v16
l-8 -16h8zM142 64v208l-10 -20v-188h10zM130 256l10 20h-90v-20h80zM32 36v216l14 28h100v-216l-14 -28h-100zM4 -158l10 20v426h-10v-446v0zM32 -138v138l14 28h114v260h-142v-426h14zM14 292v16l-8 -16h8zM174 28v280l-10 -20v-260h10zM162 292l10 20h-154v-20h144z
M0 -166v454l14 28h164v-288l-14 -28h-114v-138l-14 -28h-36z" />
    <glyph glyph-name="q" unicode="q" 
d="M160 -162v20h-16l-10 -20h26zM164 -158l8 16h-8v-16v0zM132 -158l10 20v158l-10 -20v-158v0zM130 4l10 20h-124l-10 -20h124zM128 40v20h-80l-10 -20h90zM132 44l8 16h-8v-16v0zM36 44l10 20v188h-10v-208v0zM128 64v188h-78v-188h78zM46 256v16l-8 -16h8zM142 64v208
l-10 -20v-188h10zM130 256l10 20h-90v-20h80zM32 36v216l14 28h100v-216l-14 -28h-100zM4 8l10 20v260h-10v-280v0zM160 -138v426h-142v-260h128v-166h14zM14 292v16l-8 -16h8zM174 -138v446l-10 -20v-426h10zM162 292l10 20h-154v-20h144zM128 -166v166h-128v288l14 28h164
v-454l-14 -28h-36z" />
    <glyph glyph-name="r" unicode="r" horiz-adv-x="198" 
d="M32 4v20h-16l-10 -20h26zM36 8l8 16h-8v-16v0zM140 216v20h-16l-10 -20h26zM144 220l8 16h-8v-16v0zM46 28v224h-10v-224h10zM46 256v16l-8 -16h8zM112 220l10 20v32l-10 -20v-32v0zM110 256l10 20h-70v-20h60zM4 8l10 20v260h-10v-280v0zM32 28v224l14 28h80v-40h14v48
h-122v-260h14zM14 292v16l-8 -16h8zM154 240v68l-10 -20v-48h10zM142 292l10 20h-134v-20h124zM0 0v288l14 28h144v-76l-14 -28h-36v40h-58v-224l-14 -28h-36z" />
    <glyph glyph-name="s" unicode="s" 
d="M160 4v20h-144l-10 -20h154zM164 8l8 16h-8v-16v0zM128 40v20h-80l-10 -20h90zM132 44l8 16h-8v-16v0zM4 8l10 20v48h-10v-68v0zM14 80v16l-8 -16h8zM36 44l10 20v32l-10 -20v-32v0zM34 80l10 20h-26v-20h16zM142 64v80l-10 -20v-60h10zM130 128l10 20h-124l-10 -20h124z
M174 28v152l-10 -20v-132h10zM162 164l10 20h-124l-10 -20h124zM160 216v20h-16l-10 -20h26zM164 220l8 16h-8v-16v0zM36 168l10 20v64h-10v-84v0zM46 256v16l-8 -16h8zM132 220l10 20v32l-10 -20v-32v0zM130 256l10 20h-90v-20h80zM4 132l10 20v136h-10v-156v0zM160 28v132
h-128v92l14 28h100v-40h14v48h-142v-136h128v-88l-14 -28h-100v40h-14v-48h142zM14 292v16l-8 -16h8zM174 240v68l-10 -20v-48h10zM162 292l10 20h-154v-20h144zM0 0v76l14 28h36v-40h78v60h-128v164l14 28h164v-76l-14 -28h-36v40h-78v-64h128v-160l-14 -28h-164z" />
    <glyph glyph-name="t" unicode="t" horiz-adv-x="206" 
d="M90 4v20h-16l-10 -20h26zM94 8l8 16h-8v-16v0zM104 28v224h-10v-224h10zM62 8l10 20v244l-10 -20v-244v0zM104 256v16l-8 -16h8zM60 256l10 20h-54l-10 -20h54zM148 256v20h-40v-20h40zM152 260l8 16h-8v-16v0zM4 260l10 20v8h-10v-28v0zM14 292v16l-8 -16h8zM162 280v28
l-10 -20v-8h10zM58 292v20h-40v-20h40zM62 296l8 16h-8v-16v0zM150 292l10 20h-54l-10 -20h54zM72 316v54h-10v-54h10zM90 28v224l14 28h44v8h-58v82h-14v-54l-14 -28h-44v-8h58v-252h14zM72 374v16l-8 -16h8zM94 296l10 20v74l-10 -20v-74v0zM92 374l10 20h-26v-20h16z
M58 0v252h-58v36l14 28h44v54l14 28h36v-82h58v-36l-14 -28h-44v-224l-14 -28h-36z" />
    <glyph glyph-name="u" unicode="u" 
d="M160 4v20h-144l-10 -20h154zM164 8l8 16h-8v-16v0zM128 40v20h-80l-10 -20h90zM132 44l8 16h-8v-16v0zM4 8l10 20v260h-10v-280v0zM142 64v224h-10v-224h10zM160 28v260h-14v-224l-14 -28h-100v252h-14v-260h142zM14 292v16l-8 -16h8zM36 44l10 20v244l-10 -20v-244v0z
M142 292v16l-8 -16h8zM174 28v280l-10 -20v-260h10zM34 292l10 20h-26v-20h16zM162 292l10 20h-26v-20h16zM0 0v288l14 28h36v-252h78v224l14 28h36v-288l-14 -28h-164z" />
    <glyph glyph-name="v" unicode="v" 
d="M128 4v20h-80l-10 -20h90zM132 8l8 16h-8v-16v0zM96 40v20h-16l-10 -20h26zM100 44l8 16h-8v-16v0zM36 8l10 20v48h-10v-68v0zM110 64v12h-10v-12h10zM128 28v48h-14v-12l-14 -28h-36v40h-14v-48h78zM142 28v48h-10v-48h10zM46 80v16l-8 -16h8zM68 44l10 20v32l-10 -20
v-32v0zM110 80v16l-8 -16h8zM142 80v16l-8 -16h8zM32 80v20h-16l-10 -20h26zM36 84l8 16h-8v-16v0zM66 80l10 20h-26v-20h16zM128 80v20h-14v-20h14zM132 84l8 16h-8v-16v0zM160 80v20h-14v-20h14zM164 84l8 16h-8v-16v0zM4 84l10 20v184h-10v-204v0zM32 104v184h-14v-184
h14zM142 104v184h-10v-184h10zM160 104v184h-14v-184h14zM14 292v16l-8 -16h8zM46 104v204l-10 -20v-184h10zM142 292v16l-8 -16h8zM174 104v204l-10 -20v-184h10zM34 292l10 20h-26v-20h16zM162 292l10 20h-26v-20h16zM32 0v76h-32v212l14 28h36v-212h32v-40h14v12l14 28
h18v184l14 28h36v-212l-14 -28h-18v-48l-14 -28h-100z" />
    <glyph glyph-name="w" unicode="w" horiz-adv-x="346" 
d="M256 4v20h-208l-10 -20h218zM260 8l8 16h-8v-16v0zM128 40v20h-48l-10 -20h58zM132 44l8 16h-8v-16v0zM224 40v20h-48l-10 -20h58zM228 44l8 16h-8v-16v0zM36 8l10 20v48h-10v-68v0zM238 64v12h-10v-12h10zM270 28v48h-10v-48h10zM46 80v16l-8 -16h8zM68 44l10 20v32
l-10 -20v-32v0zM238 80v16l-8 -16h8zM270 80v16l-8 -16h8zM32 80v20h-16l-10 -20h26zM36 84l8 16h-8v-16v0zM66 80l10 20h-26v-20h16zM256 80v20h-14v-20h14zM260 84l8 16h-8v-16v0zM288 80v20h-14v-20h14zM292 84l8 16h-8v-16v0zM4 84l10 20v184h-10v-204v0zM32 104v184
h-14v-184h14zM142 64v224h-10v-224h10zM256 28v48h-14v-12l-14 -28h-68v252h-14v-224l-14 -28h-68v40h-14v-48h206zM270 104v184h-10v-184h10zM288 104v184h-14v-184h14zM14 292v16l-8 -16h8zM46 104v204l-10 -20v-184h10zM142 292v16l-8 -16h8zM164 44l10 20v244l-10 -20
v-244v0zM270 292v16l-8 -16h8zM302 104v204l-10 -20v-184h10zM34 292l10 20h-26v-20h16zM162 292l10 20h-26v-20h16zM290 292l10 20h-26v-20h16zM32 0v76h-32v212l14 28h36v-212h32v-40h46v224l14 28h36v-252h46v12l14 28h18v184l14 28h36v-212l-14 -28h-18v-48l-14 -28
h-228z" />
    <glyph glyph-name="x" unicode="x" 
d="M32 4v20h-16l-10 -20h26zM36 8l8 16h-8v-16v0zM160 4v20h-16l-10 -20h26zM164 8l8 16h-8v-16v0zM46 28v60h-10v-60h10zM46 92v16l-8 -16h8zM132 8l10 20v80l-10 -20v-80v0zM64 92v20h-14v-20h14zM68 96l8 16h-8v-16v0zM130 92l10 20h-26l-10 -20h26zM4 8l10 20v96h-10
v-116v0zM78 116v8h-10v-8h10zM14 128v16l-8 -16h8zM78 128v16l-8 -16h8zM102 96l10 20v28l-10 -20v-28v0zM174 28v116l-10 -20v-96h10zM32 128v20h-14v-20h14zM36 132l8 16h-8v-16v0zM100 128l10 20h-28v-20h18zM162 128l10 20h-28l-10 -20h28zM96 164v20h-16l-10 -20h26z
M100 168l8 16h-8v-16v0zM132 132l10 20v32h-10v-52v0zM46 152v52l-10 -20v-32h10zM142 188v16l-8 -16h8zM34 188l10 20h-28l-10 -20h28zM160 188v20h-14v-20h14zM164 192l8 16h-8v-16v0zM110 188v32h-10v-32h10zM68 168l10 20v52l-10 -20v-52v0zM110 224v16l-8 -16h8z
M66 224l10 20h-28l-10 -20h28zM128 224v20h-14v-20h14zM132 228l8 16h-8v-16v0zM4 192l10 20v76h-10v-96v0zM142 248v40h-10v-40h10zM160 28v96h-32v60l14 28h18v76h-14v-40l-14 -28h-18v-32l-14 -28h-36v60h-32v68h-14v-76h32v-60l-14 -28h-18v-96h14v60l14 28h18v8l14 28
h38v-36h30v-88h14zM14 292v16l-8 -16h8zM36 228l10 20v60l-10 -20v-60v0zM142 292v16l-8 -16h8zM174 212v96l-10 -20v-76h10zM34 292l10 20h-26v-20h16zM162 292l10 20h-26v-20h16zM0 0v124l14 28h18v32h-32v104l14 28h36v-68h32v-60h14v32l14 28h18v40l14 28h36v-104
l-14 -28h-18v-32h32v-124l-14 -28h-36v88h-30v36h-16v-8l-14 -28h-18v-60l-14 -28h-36z" />
    <glyph glyph-name="y" unicode="y" 
d="M160 -162v20h-144l-10 -20h154zM164 -158l8 16h-8v-16v0zM128 -126v20h-80l-10 -20h90zM132 -122l8 16h-8v-16v0zM4 -158l10 20v56h-10v-76v0zM14 -78v16l-8 -16h8zM36 -122l10 20v40l-10 -20v-40v0zM34 -78l10 20h-26v-20h16zM142 -102v122l-10 -20v-102h10zM130 4
l10 20h-124l-10 -20h124zM128 40v20h-80l-10 -20h90zM132 44l8 16h-8v-16v0zM4 8l10 20v260h-10v-280v0zM142 64v224h-10v-224h10zM160 -138v426h-14v-224l-14 -28h-100v252h-14v-260h128v-130l-14 -28h-100v48h-14v-56h142zM14 292v16l-8 -16h8zM36 44l10 20v244l-10 -20
v-244v0zM142 292v16l-8 -16h8zM174 -138v446l-10 -20v-426h10zM34 292l10 20h-26v-20h16zM162 292l10 20h-26v-20h16zM0 -166v84l14 28h36v-48h78v102h-128v288l14 28h36v-252h78v224l14 28h36v-454l-14 -28h-164z" />
    <glyph glyph-name="z" unicode="z" 
d="M160 4v20h-144l-10 -20h154zM164 8l8 16h-8v-16v0zM128 40v20h-80l-10 -20h90zM132 44l8 16h-8v-16v0zM142 64v12h-10v-12h10zM142 80v16l-8 -16h8zM174 28v68l-10 -20v-48h10zM162 80l10 20h-26v-20h16zM36 44l10 20v60h-10v-80v0zM46 128v16l-8 -16h8zM160 128v20h-110
v-20h110zM164 132l8 16h-8v-16v0zM4 8l10 20v132h-10v-152v0zM14 164v16l-8 -16h8zM128 164v20h-110v-20h110zM132 168l8 16h-8v-16v0zM32 216v20h-16l-10 -20h26zM36 220l8 16h-8v-16v0zM46 240v12h-10v-12h10zM46 256v16l-8 -16h8zM142 188v84l-10 -20v-64h10zM130 256
l10 20h-90v-20h80zM4 220l10 20v48h-10v-68v0zM160 28v48h-14v-12l-14 -28h-100v88l14 28h114v136h-142v-48h14v12l14 28h100v-92l-14 -28h-114v-132h142zM14 292v16l-8 -16h8zM174 152v156l-10 -20v-136h10zM162 292l10 20h-154v-20h144zM0 0v160l14 28h114v64h-78v-12
l-14 -28h-36v76l14 28h164v-164l-14 -28h-114v-60h78v12l14 28h36v-76l-14 -28h-164z" />
  </font>
</defs>
</svg>
