<?xml version="1.0" standalone="no"?>
<!DOCTYPE svg PUBLIC "-//W3C//DTD SVG 1.1//EN" "http://www.w3.org/Graphics/SVG/1.1/DTD/svg11.dtd" >
<svg xmlns="http://www.w3.org/2000/svg" xmlns:xlink="http://www.w3.org/1999/xlink" version="1.1">
<metadata>
Created by FontForge 20170731 at Wed Feb 13 19:18:03 2019
 By Aleksey,,,
Copyright David Neustadt 2009
</metadata>
<defs>
<font id="genero" horiz-adv-x="512" >
  <font-face 
    font-family="genero"
    font-weight="400"
    font-stretch="normal"
    units-per-em="1024"
    panose-1="0 0 4 0 0 0 0 0 0 0"
    ascent="819"
    descent="-205"
    cap-height="653"
    bbox="0 -128 743 653"
    underline-thickness="51"
    underline-position="26"
    unicode-range="U+0020-005A"
  />
<missing-glyph horiz-adv-x="620" 
d="M423 50l-177 250l-177 -250h354zM50 69l176 251l-176 250v-501v0zM442 69v501l-177 -250l177 -251v0zM246 339l177 251h-354l177 -251v0zM0 0v640h492v-640h-492z" />
    <glyph glyph-name=".notdef" horiz-adv-x="620" 
d="M423 50l-177 250l-177 -250h354zM50 69l176 251l-176 250v-501v0zM442 69v501l-177 -250l177 -251v0zM246 339l177 251h-354l177 -251v0zM0 0v640h492v-640h-492z" />
    <glyph glyph-name="glyph1" horiz-adv-x="128" 
 />
    <glyph glyph-name="glyph2" horiz-adv-x="128" 
 />
    <glyph glyph-name="space" unicode=" " horiz-adv-x="128" 
 />
    <glyph glyph-name="exclam" unicode="!" horiz-adv-x="256" 
d="M115 0q-48 0 -82 20q-33 21 -33 50v71h1q7 21 32 37q34 20 82 20t82 -20q26 -16 32 -37h2v-71q0 -29 -34 -50q-34 -20 -82 -20v0zM115 256q-48 0 -82 20q-33 21 -33 50v256q0 30 33 50q34 21 82 21t82 -21q34 -20 34 -50v-256q0 -29 -34 -50q-34 -20 -82 -20v0z" />
    <glyph glyph-name="comma" unicode="," horiz-adv-x="256" 
d="M115 -128q-48 0 -82 21q-33 21 -33 50v198h1q7 21 32 37q34 20 82 20t82 -20q26 -16 32 -37h2v-198q0 -29 -34 -50t-82 -21v0z" />
    <glyph glyph-name="period" unicode="." horiz-adv-x="256" 
d="M115 0q-48 0 -82 20q-33 21 -33 50v71h1q7 21 32 37q34 20 82 20t82 -20q26 -16 32 -37h2v-71q0 -29 -34 -50q-34 -20 -82 -20v0z" />
    <glyph glyph-name="A" unicode="A" 
d="M256 397v115h-25v-115h25zM115 0q-48 0 -82 20q-33 21 -33 50v455v0q8 50 67 87q68 41 164 41v0h12h13v0q96 0 163 -41q60 -37 67 -87h1v-455q0 -29 -34 -50q-34 -20 -82 -20t-82 20q-33 21 -33 50v186h-25v-186q0 -29 -34 -50q-34 -20 -82 -20v0z" />
    <glyph glyph-name="B" unicode="B" 
d="M256 141v115h-25v-115h25zM256 397v115h-25v-115h25zM115 0q-48 0 -82 20q-33 21 -33 50v512q0 29 33 50q34 21 82 21h116v0h12h13v0q96 0 163 -41q60 -37 67 -87h1v-141h-2q-6 -21 -32 -37q-34 -21 -82 -21q48 0 82 -20q26 -16 32 -37h2v-141h-1q-7 -51 -67 -87
q-68 -41 -163 -41v0h-13h-12v0v0v0v0h-116z" />
    <glyph glyph-name="C" unicode="C" 
d="M231 0q-96 0 -164 41q-59 37 -67 87v0v397v0q8 50 67 87q68 41 164 41v0h12h13v0q96 0 163 -41q60 -37 67 -87h1v-71q0 -29 -34 -50q-34 -20 -82 -20t-82 20q-33 21 -33 50v58h-25v-371h25v57q0 30 33 50q34 21 82 21t82 -21q34 -20 34 -50v-70h-1q-7 -51 -67 -87
q-68 -41 -163 -41v0h-13h-12v0v0v0v0v0z" />
    <glyph glyph-name="D" unicode="D" 
d="M256 141v371h-25v-371h25zM115 0q-48 0 -82 20q-33 21 -33 50v512q0 29 33 50q34 21 82 21h116v0h12h13v0q96 0 163 -41q60 -37 67 -87h1v-397h-1q-7 -51 -67 -87q-68 -41 -163 -41v0h-13h-12v0v0v0v0h-116z" />
    <glyph glyph-name="E" unicode="E" 
d="M231 0q-96 0 -164 41q-59 37 -67 87v0v397v0q8 50 67 87q68 41 164 41v0h12h13v0q96 0 163 -41q60 -37 67 -87h1v-6v-7h-2q-6 -21 -32 -37q-34 -21 -82 -21t-82 21q-25 16 -32 37h-26v-115h12q48 0 82 -21q34 -20 34 -50q0 -29 -34 -50q-34 -20 -82 -20h-12v-115h26
q7 21 32 37q34 20 82 20t82 -20q26 -16 32 -37h2v-8v-5h-1q-7 -51 -67 -87q-68 -41 -163 -41v0h-13h-12v0v0v0v0v0z" />
    <glyph glyph-name="F" unicode="F" 
d="M115 0q-48 0 -82 20q-33 21 -33 50v455v0q8 50 67 87q68 41 164 41v0h12h13v0q96 0 163 -41q60 -37 67 -87h1v-6v-7h-2q-6 -21 -32 -37q-34 -21 -82 -21t-82 21q-25 16 -32 37h-26v-115h12q48 0 82 -21q34 -20 34 -50q0 -29 -34 -50q-34 -20 -82 -20h-12v-186
q0 -29 -34 -50q-34 -20 -82 -20v0z" />
    <glyph glyph-name="G" unicode="G" 
d="M231 0q-96 0 -164 41q-59 37 -67 87v0v397v0q8 50 67 87q68 41 164 41v0h12h13v0q96 0 163 -41q60 -37 67 -87h1v-6v-7h-2q-6 -21 -32 -37q-34 -21 -82 -21t-82 21q-25 16 -32 37h-26v-371h25v185q0 30 33 50q34 21 82 21t82 -21q34 -20 34 -50v-256q0 -29 -34 -50
q-34 -20 -82 -20h-115v0h-13h-12v0v0v0v0v0z" />
    <glyph glyph-name="H" unicode="H" 
d="M115 0q-48 0 -82 20q-33 21 -33 50v512q0 30 33 50q34 21 82 21t82 -21q34 -20 34 -50v-185h25v185q0 30 33 50q34 21 82 21t82 -21q34 -20 34 -50v-512q0 -29 -34 -50q-34 -20 -82 -20t-82 20q-33 21 -33 50v186h-25v-186q0 -29 -34 -50q-34 -20 -82 -20v0z" />
    <glyph glyph-name="I" unicode="I" 
d="M115 0q-48 0 -82 20q-33 21 -33 50q0 30 33 50q34 21 82 21h13v371h-13q-48 0 -82 20q-33 21 -33 50q0 30 33 50q34 21 82 21h256q48 0 82 -21q34 -20 34 -50q0 -29 -34 -50q-34 -20 -82 -20h-12v-371h12q48 0 82 -21q34 -20 34 -50q0 -29 -34 -50q-34 -20 -82 -20h-115
v0h-13h-12v0v0v0v0h-116z" />
    <glyph glyph-name="J" unicode="J" 
d="M231 0q-96 0 -164 41q-59 37 -67 87v0v5v0v8h1q7 21 32 37q34 20 82 20t82 -20q26 -16 32 -37h27v441q0 30 33 50q34 21 82 21t82 -21q34 -20 34 -50v-454h-1q-7 -51 -67 -87q-68 -41 -163 -41v0h-13h-12v0v0v0v0v0z" />
    <glyph glyph-name="K" unicode="K" 
d="M115 0q-48 0 -82 20q-33 21 -33 50v512q0 30 33 50q34 21 82 21t82 -21q34 -20 34 -50v-185h25v185q0 30 33 50q34 21 82 21t82 -21q34 -20 34 -50v-198h-2q-6 -21 -32 -37q-34 -21 -82 -21q48 0 82 -20q26 -16 32 -37h2v-199q0 -29 -34 -50q-34 -20 -82 -20t-82 20
q-33 21 -33 50v186h-25v-186q0 -29 -34 -50q-34 -20 -82 -20v0z" />
    <glyph glyph-name="L" unicode="L" 
d="M231 0q-96 0 -164 41q-59 37 -67 87v0v454q0 30 33 50q34 21 82 21t82 -21q34 -20 34 -50v-441h26q7 21 32 37q34 20 82 20t82 -20q26 -16 32 -37h2v-8v-5h-1q-7 -51 -67 -87q-68 -41 -163 -41v0h-13h-12v0v0v0v0v0z" />
    <glyph glyph-name="M" unicode="M" horiz-adv-x="768" 
d="M115 0q-48 0 -82 20q-33 21 -33 50v455v0q8 50 67 87q68 41 164 41v0h12h13v0h231v0h12h13v0q96 0 163 -41q60 -37 67 -87h1v-455q0 -29 -34 -50q-34 -20 -82 -20t-82 20q-33 21 -33 50v442h-25v-442q0 -29 -34 -50q-34 -20 -82 -20t-82 20q-33 21 -33 50v442h-25v-442
q0 -29 -34 -50q-34 -20 -82 -20v0z" />
    <glyph glyph-name="N" unicode="N" 
d="M115 0q-48 0 -82 20q-33 21 -33 50v455v0q8 50 67 87q68 41 164 41v0h12h13v0q96 0 163 -41q60 -37 67 -87h1v-455q0 -29 -34 -50q-34 -20 -82 -20t-82 20q-33 21 -33 50v442h-25v-442q0 -29 -34 -50q-34 -20 -82 -20v0z" />
    <glyph glyph-name="O" unicode="O" 
d="M256 141v371h-25v-371h25zM231 0q-96 0 -164 41q-59 37 -67 87v0v397v0q8 50 67 87q68 41 164 41v0h12h13v0q96 0 163 -41q60 -37 67 -87h1v-397h-1q-7 -51 -67 -87q-68 -41 -163 -41v0h-13h-12v0v0v0v0v0z" />
    <glyph glyph-name="P" unicode="P" 
d="M256 397v115h-25v-115h12h13v0zM115 0q-48 0 -82 20q-33 21 -33 50v455v0q8 50 67 87q68 41 164 41v0h12h13v0q96 0 163 -41q60 -37 67 -87h1v-141h-1q-7 -51 -67 -87q-68 -41 -163 -41v0h-13h-12v-186q0 -29 -34 -50q-34 -20 -82 -20v0z" />
    <glyph glyph-name="Q" unicode="Q" 
d="M256 141v371h-25v-371h25zM371 -128q-48 0 -82 21q-33 21 -33 50v57h-13h-12v0v0v0v0q-96 0 -164 41q-59 37 -67 87v0v397v0q8 50 67 87q68 41 164 41v0h12h13v0q96 0 163 -41q60 -37 67 -87h1v-397h-1q-7 -51 -67 -87q-29 -18 -63 -28h15q46 0 82 -23q34 -23 34 -47
q0 -29 -34 -50t-82 -21v0z" />
    <glyph glyph-name="R" unicode="R" 
d="M256 397v115h-25v-115h25zM115 0q-48 0 -82 20q-33 21 -33 50v455v0q8 50 67 87q68 41 164 41v0h12h13v0q96 0 163 -41q60 -37 67 -87h1v-141h-2q-6 -21 -32 -37q-34 -21 -82 -21q48 0 82 -20q26 -16 32 -37h2v-199q0 -29 -34 -50q-34 -20 -82 -20t-82 20q-33 21 -33 50
v186h-25v-186q0 -29 -34 -50q-34 -20 -82 -20v0z" />
    <glyph glyph-name="S" unicode="S" 
d="M231 0v0v0v0v0zM256 269v1v0h-13h-12v0v-1h25zM231 270v0v0v0v0zM231 383h12h13v0v1h-25v-1v0zM231 0q-96 0 -164 41q-59 37 -67 87v0v5v0v8h1q7 21 32 37q34 20 82 20t82 -20q26 -16 32 -37h27v89v0l-128 39h2q-34 10 -63 28q-59 37 -67 87v0v141v0q8 50 67 87
q68 41 164 41v0v0h12h13v0v0q96 0 163 -41q60 -37 67 -87h1v-6v0v-7h-2q-6 -21 -32 -37q-34 -21 -82 -21t-82 21q-25 16 -32 37h-26v-89v0l128 -39h-3q34 -11 63 -28q60 -37 67 -87h1v-141h-1q-7 -51 -67 -87q-68 -41 -163 -41v0h-13h-12v0v0z" />
    <glyph glyph-name="T" unicode="T" 
d="M243 0q-48 0 -82 20q-33 21 -33 50v442h-13q-48 0 -82 20q-33 21 -33 50q0 30 33 50q34 21 82 21h256q48 0 82 -21q34 -20 34 -50q0 -29 -34 -50q-34 -20 -82 -20h-12v-442q0 -29 -34 -50q-34 -20 -82 -20v0z" />
    <glyph glyph-name="U" unicode="U" 
d="M231 0q-96 0 -164 41q-59 37 -67 87v0v454q0 30 33 50q34 21 82 21t82 -21q34 -20 34 -50v-441h25v441q0 30 33 50q34 21 82 21t82 -21q34 -20 34 -50v-454h-1q-7 -51 -67 -87q-68 -41 -163 -41v0h-13h-12v0v0v0v0v0z" />
    <glyph glyph-name="V" unicode="V" 
d="M115 0q-48 0 -82 20q-33 21 -33 50v512q0 30 33 50q34 21 82 21t82 -21q34 -20 34 -50v-441h12h13v441q0 30 33 50q34 21 82 21t82 -21q34 -20 34 -50v-454h-1q-7 -51 -67 -87q-68 -41 -163 -41v0h-13h-12v0v0v0v0h-116z" />
    <glyph glyph-name="W" unicode="W" horiz-adv-x="768" 
d="M231 0q-96 0 -164 41q-59 37 -67 87v0v454q0 30 33 50q34 21 82 21t82 -21q34 -20 34 -50v-441h25v441q0 30 33 50q34 21 82 21t82 -21q34 -20 34 -50v-441h25v441q0 30 33 50q34 21 82 21t82 -21q34 -20 34 -50v-454h-1q-7 -51 -67 -87q-68 -41 -163 -41v0h-13h-12v0v0
v0v0h-231v0h-13h-12v0v0v0v0v0z" />
    <glyph glyph-name="X" unicode="X" 
d="M115 0q-48 0 -82 20q-33 21 -33 50v199h1q7 21 32 37q34 20 82 20q-48 0 -82 21q-25 16 -32 37h-1v198q0 30 33 50q34 21 82 21t82 -21q34 -20 34 -50v-185h25v185q0 30 33 50q34 21 82 21t82 -21q34 -20 34 -50v-198h-2q-6 -21 -32 -37q-34 -21 -82 -21q48 0 82 -20
q26 -16 32 -37h2v-199q0 -29 -34 -50q-34 -20 -82 -20t-82 20q-33 21 -33 50v186h-25v-186q0 -29 -34 -50q-34 -20 -82 -20v0z" />
    <glyph glyph-name="Y" unicode="Y" 
d="M243 0q-48 0 -82 20q-33 21 -33 50v199h2q-34 10 -63 28q-59 37 -67 87v0v198q0 30 33 50q34 21 82 21t82 -21q34 -20 34 -50v-185h25v185q0 30 33 50q34 21 82 21t82 -21q34 -20 34 -50v-198h-1q-7 -51 -67 -87q-29 -18 -63 -28h3v-199q0 -29 -34 -50q-34 -20 -82 -20v0
z" />
    <glyph glyph-name="Z" unicode="Z" 
d="M231 0v0v0v0v0zM256 269v1v0h-13h-12v0v-1h25zM231 270v0v0v0v0zM231 383h12h13v0v1h-25v-1v0zM231 0q-96 0 -164 41q-59 37 -67 87v0v141v0q8 50 67 87q29 17 63 28h-2l128 39v0v89h-27q-6 -21 -32 -37q-34 -21 -82 -21t-82 21q-25 16 -32 37h-1v7v0v6v0q8 50 67 87
q68 41 164 41v0v0h12h13v0v0q96 0 163 -41q60 -37 67 -87h1v-141h-1q-7 -51 -67 -87q-29 -18 -63 -28h3l-128 -39v0v-89h26q7 21 32 37q34 20 82 20t82 -20q26 -16 32 -37h2v-8v0v-5h-1q-7 -51 -67 -87q-68 -41 -163 -41v0h-13h-12v0v0z" />
  </font>
</defs>
</svg>
