<?xml version="1.0" standalone="no"?>
<!DOCTYPE svg PUBLIC "-//W3C//DTD SVG 1.1//EN" "http://www.w3.org/Graphics/SVG/1.1/DTD/svg11.dtd" >
<svg xmlns="http://www.w3.org/2000/svg" xmlns:xlink="http://www.w3.org/1999/xlink" version="1.1">
<metadata>
Created by FontForge 20170731 at Mon Apr 15 07:43:43 2019
 By Aleksey,,,
Copyright David Neustadt 2009
</metadata>
<defs>
<font id="boulder" horiz-adv-x="480" >
  <font-face 
    font-family="boulder"
    font-weight="400"
    font-stretch="normal"
    units-per-em="1024"
    panose-1="0 0 4 0 0 0 0 0 0 0"
    ascent="819"
    descent="-205"
    x-height="416"
    bbox="0 -128 424 544"
    underline-thickness="51"
    underline-position="26"
    unicode-range="U+0020-007A"
  />
<missing-glyph horiz-adv-x="420" 
d="M343 50l-137 198l-137 -198h274zM50 69l136 199l-136 198v-397v0zM362 69v397l-137 -198l137 -199v0zM206 287l137 199h-274l137 -199v0zM0 0v536h412v-536h-412z" />
    <glyph glyph-name=".notdef" horiz-adv-x="420" 
d="M343 50l-137 198l-137 -198h274zM50 69l136 199l-136 198v-397v0zM362 69v397l-137 -198l137 -199v0zM206 287l137 199h-274l137 -199v0zM0 0v536h412v-536h-412z" />
    <glyph glyph-name="glyph1" horiz-adv-x="8" 
 />
    <glyph glyph-name="glyph2" horiz-adv-x="8" 
 />
    <glyph glyph-name="space" unicode=" " horiz-adv-x="424" 
 />
    <glyph glyph-name="exclam" unicode="!" 
d="M304 16q3 0 5 2q3 2 3 6v48q0 3 -3 5q-2 3 -5 3h-176q-4 0 -6 -3q-2 -2 -2 -5v-48q0 -4 2 -6t6 -2h176zM120 0q-7 0 -12 4q-4 5 -4 12v64q0 6 4 11q5 5 12 5h192q6 0 11 -5t5 -11v-64q0 -7 -5 -12q-5 -4 -11 -4h-192zM304 144q3 0 5 2q3 2 3 6v368q0 3 -3 5q-2 3 -5 3
h-176q-4 0 -6 -3q-2 -2 -2 -5v-368q0 -4 2 -6t6 -2h176zM120 128q-7 0 -12 4q-4 5 -4 12v384q0 6 4 11q5 5 12 5h192q6 0 11 -5t5 -11v-384q0 -7 -5 -12q-5 -4 -11 -4h-192z" />
    <glyph glyph-name="comma" unicode="," 
d="M280 -112q3 0 5 3q3 2 3 5v264q0 3 -3 5q-2 3 -5 3h-128q-4 0 -6 -3q-2 -2 -2 -5v-152h72v-8h-72v-104q0 -3 2 -5q2 -3 6 -3h128zM144 -128q-7 0 -12 5q-4 5 -4 11v280q0 6 4 11q5 5 12 5h144q6 0 11 -5t5 -11v-280q0 -6 -5 -11t-11 -5h-144z" />
    <glyph glyph-name="period" unicode="." 
d="M280 16q3 0 5 2q3 2 3 6v136q0 3 -3 5q-2 3 -5 3h-128q-4 0 -6 -3q-2 -2 -2 -5v-136q0 -4 2 -6t6 -2h128zM144 0q-7 0 -12 4q-4 5 -4 12v152q0 6 4 11q5 5 12 5h144q6 0 11 -5t5 -11v-152q0 -7 -5 -12q-5 -4 -11 -4h-144z" />
    <glyph glyph-name="zero" unicode="0" 
d="M208 128v288h8v-288h-8zM400 16q3 0 5 2q3 2 3 6v496q0 3 -3 5q-2 3 -5 3h-376q-4 0 -6 -3q-2 -2 -2 -5v-496q0 -4 2 -6t6 -2h376zM16 0q-7 0 -12 4q-4 5 -4 12v512q0 6 4 11q5 5 12 5h392q6 0 11 -5t5 -11v-512q0 -7 -5 -12q-5 -4 -11 -4h-392z" />
    <glyph glyph-name="one" unicode="1" 
d="M400 16q3 0 5 2q3 2 3 6v96q0 3 -3 5q-2 3 -5 3h-88v392q0 3 -3 5q-2 3 -5 3h-280q-4 0 -6 -3q-2 -2 -2 -5v-224q0 -4 2 -6t6 -2h88v128h8v-288h-96q-4 0 -6 -3q-2 -2 -2 -5v-96q0 -4 2 -6t6 -2h376zM16 0q-7 0 -12 4q-4 5 -4 12v112q0 6 4 11q5 5 12 5h88v128h-88
q-7 0 -12 4q-4 5 -4 12v240q0 6 4 11q5 5 12 5h296q6 0 11 -5t5 -11v-384h80q6 0 11 -5t5 -11v-112q0 -7 -5 -12q-5 -4 -11 -4h-392z" />
    <glyph glyph-name="two" unicode="2" 
d="M400 16q3 0 5 2q3 2 3 6v104h-200v8h200v384q0 3 -3 5q-2 3 -5 3h-376q-4 0 -6 -3q-2 -2 -2 -5v-232h192v128h8v-136h-200v-256q0 -4 2 -6t6 -2h376zM16 0q-7 0 -12 4q-4 5 -4 12v512q0 6 4 11q5 5 12 5h392q6 0 11 -5t5 -11v-512q0 -7 -5 -12q-5 -4 -11 -4h-392z" />
    <glyph glyph-name="three" unicode="3" 
d="M400 16q3 0 5 2q3 2 3 6v496q0 3 -3 5q-2 3 -5 3h-376q-4 0 -6 -3q-2 -2 -2 -5v-168h192v64h8v-72h-200v-160h200v-56h-8v48h-192v-152q0 -4 2 -6t6 -2h376zM16 0q-7 0 -12 4q-4 5 -4 12v512q0 6 4 11q5 5 12 5h392q6 0 11 -5t5 -11v-512q0 -7 -5 -12q-5 -4 -11 -4h-392z
" />
    <glyph glyph-name="four" unicode="4" 
d="M400 16q3 0 5 2q3 2 3 6v496q0 3 -3 5q-2 3 -5 3h-184v-248h-8v248h-184q-4 0 -6 -3q-2 -2 -2 -5v-368q0 -4 2 -6t6 -2h192v-120q0 -4 2 -6t6 -2h176zM216 0q-7 0 -12 4q-4 5 -4 12v112h-184q-7 0 -12 4q-4 5 -4 12v384q0 6 4 11q5 5 12 5h392q6 0 11 -5t5 -11v-512
q0 -7 -5 -12q-5 -4 -11 -4h-192z" />
    <glyph glyph-name="five" unicode="5" 
d="M400 16q3 0 5 2q3 2 3 6v384h-200v8h200v104q0 3 -3 5q-2 3 -5 3h-376q-4 0 -6 -3q-2 -2 -2 -5v-256h200v-136h-8v128h-192v-232q0 -4 2 -6t6 -2h376zM16 0q-7 0 -12 4q-4 5 -4 12v512q0 6 4 11q5 5 12 5h392q6 0 11 -5t5 -11v-512q0 -7 -5 -12q-5 -4 -11 -4h-392z" />
    <glyph glyph-name="six" unicode="6" 
d="M208 128v160h8v-160h-8zM400 16q3 0 5 2q3 2 3 6v384h-200v8h200v104q0 3 -3 5q-2 3 -5 3h-376q-4 0 -6 -3q-2 -2 -2 -5v-496q0 -4 2 -6t6 -2h376zM16 0q-7 0 -12 4q-4 5 -4 12v512q0 6 4 11q5 5 12 5h392q6 0 11 -5t5 -11v-512q0 -7 -5 -12q-5 -4 -11 -4h-392z" />
    <glyph glyph-name="seven" unicode="7" 
d="M400 16q3 0 5 2q3 2 3 6v496q0 3 -3 5q-2 3 -5 3h-376q-4 0 -6 -3q-2 -2 -2 -5v-224q0 -4 2 -6t6 -2h184v128h8v-392q0 -4 2 -6t6 -2h176zM216 0q-7 0 -12 4q-4 5 -4 12v256h-184q-7 0 -12 4q-4 5 -4 12v240q0 6 4 11q5 5 12 5h392q6 0 11 -5t5 -11v-512q0 -7 -5 -12
q-5 -4 -11 -4h-192z" />
    <glyph glyph-name="eight" unicode="8" 
d="M208 128v96h8v-96h-8zM208 320v96h8v-96h-8zM400 16q3 0 5 2q3 2 3 6v496q0 3 -3 5q-2 3 -5 3h-376q-4 0 -6 -3q-2 -2 -2 -5v-496q0 -4 2 -6t6 -2h376zM16 0q-7 0 -12 4q-4 5 -4 12v512q0 6 4 11q5 5 12 5h392q6 0 11 -5t5 -11v-512q0 -7 -5 -12q-5 -4 -11 -4h-392z" />
    <glyph glyph-name="nine" unicode="9" 
d="M208 256v160h8v-160h-8zM400 16q3 0 5 2q3 2 3 6v496q0 3 -3 5q-2 3 -5 3h-376q-4 0 -6 -3q-2 -2 -2 -5v-392h200v-8h-200v-96q0 -4 2 -6t6 -2h376zM16 0q-7 0 -12 4q-4 5 -4 12v512q0 6 4 11q5 5 12 5h392q6 0 11 -5t5 -11v-512q0 -7 -5 -12q-5 -4 -11 -4h-392z" />
    <glyph glyph-name="question" unicode="?" 
d="M304 16q3 0 5 2q3 2 3 6v48q0 3 -3 5q-2 3 -5 3h-176q-4 0 -6 -3q-2 -2 -2 -5v-48q0 -4 2 -6t6 -2h176zM120 0q-7 0 -12 4q-4 5 -4 12v64q0 6 4 11q5 5 12 5h192q6 0 11 -5t5 -11v-64q0 -7 -5 -12q-5 -4 -11 -4h-192zM304 144q3 0 5 2q3 2 3 6v144h88q3 0 5 2q3 2 3 6
v216q0 3 -3 5q-2 3 -5 3h-376q-4 0 -6 -3q-2 -2 -2 -5v-216q0 -4 2 -6t6 -2h184v120h8v-128h-96v-136q0 -4 2 -6t6 -2h176zM120 128q-7 0 -12 4q-4 5 -4 12v136h-88q-7 0 -12 4q-4 5 -4 12v232q0 6 4 11q5 5 12 5h392q6 0 11 -5t5 -11v-232q0 -7 -5 -12q-5 -4 -11 -4h-80
v-136q0 -7 -5 -12q-5 -4 -11 -4h-192z" />
    <glyph glyph-name="a" unicode="a" 
d="M208 128v48h8v-48h-8zM400 16q3 0 5 2q3 2 3 6v368q0 3 -3 5q-2 3 -5 3h-376q-4 0 -6 -3q-2 -2 -2 -5v-104h200v-8h-200v-256q0 -4 2 -6t6 -2h376zM16 0q-7 0 -12 4q-4 5 -4 12v384q0 6 4 11q5 5 12 5h392q6 0 11 -5t5 -11v-384q0 -7 -5 -12q-5 -4 -11 -4h-392z" />
    <glyph glyph-name="b" unicode="b" 
d="M208 128v160h8v-160h-8zM400 16q3 0 5 2q3 2 3 6v368q0 3 -3 5q-2 3 -5 3h-192v120q0 3 -3 5q-2 3 -5 3h-176q-4 0 -6 -3q-2 -2 -2 -5v-496q0 -4 2 -6t6 -2h376zM16 0q-7 0 -12 4q-4 5 -4 12v512q0 6 4 11q5 5 12 5h192q6 0 11 -5t5 -11v-112h184q6 0 11 -5t5 -11v-384
q0 -7 -5 -12q-5 -4 -11 -4h-392z" />
    <glyph glyph-name="c" unicode="c" 
d="M400 16q3 0 5 2q3 2 3 6v184h-192v-80h-8v160h8v-72h192v176q0 3 -3 5q-2 3 -5 3h-376q-4 0 -6 -3q-2 -2 -2 -5v-368q0 -4 2 -6t6 -2h376zM16 0q-7 0 -12 4q-4 5 -4 12v384q0 6 4 11q5 5 12 5h392q6 0 11 -5t5 -11v-384q0 -7 -5 -12q-5 -4 -11 -4h-392z" />
    <glyph glyph-name="d" unicode="d" 
d="M208 128v160h8v-160h-8zM400 16q3 0 5 2q3 2 3 6v496q0 3 -3 5q-2 3 -5 3h-176q-4 0 -6 -3q-2 -2 -2 -5v-120h-192q-4 0 -6 -3q-2 -2 -2 -5v-368q0 -4 2 -6t6 -2h376zM16 0q-7 0 -12 4q-4 5 -4 12v384q0 6 4 11q5 5 12 5h184v112q0 6 4 11q5 5 12 5h192q6 0 11 -5t5 -11
v-512q0 -7 -5 -12q-5 -4 -11 -4h-392z" />
    <glyph glyph-name="e" unicode="e" 
d="M208 240v48h8v-48h-8zM400 16q3 0 5 2q3 2 3 6v104h-200v8h200v256q0 3 -3 5q-2 3 -5 3h-376q-4 0 -6 -3q-2 -2 -2 -5v-368q0 -4 2 -6t6 -2h376zM16 0q-7 0 -12 4q-4 5 -4 12v384q0 6 4 11q5 5 12 5h392q6 0 11 -5t5 -11v-384q0 -7 -5 -12q-5 -4 -11 -4h-392z" />
    <glyph glyph-name="f" unicode="f" 
d="M240 16q3 0 5 2q3 2 3 6v272h104q3 0 5 2q3 2 3 6v104h-112v8h152q3 0 5 2q3 2 3 6v96q0 3 -3 5q-2 3 -5 3h-336q-4 0 -6 -3q-2 -2 -2 -5v-120h-32q-4 0 -6 -3q-2 -2 -2 -5v-88q0 -4 2 -6t6 -2h32v-272q0 -4 2 -6t6 -2h176zM56 0q-7 0 -12 4q-4 5 -4 12v264h-24
q-7 0 -12 4q-4 5 -4 12v104q0 6 4 11q5 5 12 5h24v112q0 6 4 11q5 5 12 5h352q6 0 11 -5t5 -11v-112q0 -7 -5 -12q-5 -4 -11 -4h-32v-104q0 -7 -5 -12q-5 -4 -11 -4h-96v-264q0 -7 -5 -12q-5 -4 -11 -4h-192z" />
    <glyph glyph-name="g" unicode="g" horiz-adv-x="488" 
d="M208 128v160h8v-160h-8zM400 -112q3 0 5 3q3 2 3 5v496q0 3 -3 5q-2 3 -5 3h-376q-4 0 -6 -3q-2 -2 -2 -5v-392h200v-8h-200v-96q0 -3 2 -5q2 -3 6 -3h376zM16 -128q-7 0 -12 5q-4 5 -4 11v512q0 6 4 11q5 5 12 5h392q6 0 11 -5t5 -11v-512q0 -6 -5 -11t-11 -5h-392z" />
    <glyph glyph-name="h" unicode="h" 
d="M400 16q3 0 5 2q3 2 3 6v368q0 3 -3 5q-2 3 -5 3h-192v120q0 3 -3 5q-2 3 -5 3h-176q-4 0 -6 -3q-2 -2 -2 -5v-496q0 -4 2 -6t6 -2h184v264h8v-264h184zM16 0q-7 0 -12 4q-4 5 -4 12v512q0 6 4 11q5 5 12 5h192q6 0 11 -5t5 -11v-112h184q6 0 11 -5t5 -11v-384
q0 -7 -5 -12q-5 -4 -11 -4h-392z" />
    <glyph glyph-name="i" unicode="i" 
d="M400 16q3 0 5 2q3 2 3 6v96q0 3 -3 5q-2 3 -5 3h-88v264q0 3 -3 5q-2 3 -5 3h-280q-4 0 -6 -3q-2 -2 -2 -5v-96q0 -4 2 -6t6 -2h96v-160h-96q-4 0 -6 -3q-2 -2 -2 -5v-96q0 -4 2 -6t6 -2h376zM16 0q-7 0 -12 4q-4 5 -4 12v112q0 6 4 11q5 5 12 5h88v128h-88q-7 0 -12 4
q-4 5 -4 12v112q0 6 4 11q5 5 12 5h296q6 0 11 -5t5 -11v-256h80q6 0 11 -5t5 -11v-112q0 -7 -5 -12q-5 -4 -11 -4h-392zM304 464q3 0 5 2q3 2 3 6v48q0 3 -3 5q-2 3 -5 3h-176q-4 0 -6 -3q-2 -2 -2 -5v-48q0 -4 2 -6t6 -2h176zM120 448q-7 0 -12 4q-4 5 -4 12v64q0 6 4 11
q5 5 12 5h192q6 0 11 -5t5 -11v-64q0 -7 -5 -12q-5 -4 -11 -4h-192z" />
    <glyph glyph-name="j" unicode="j" 
d="M400 -112q3 0 5 3q3 2 3 5v496q0 3 -3 5q-2 3 -5 3h-280q-4 0 -6 -3q-2 -2 -2 -5v-96q0 -4 2 -6t6 -2h96v-288h-8v128h-184q-4 0 -6 -3q-2 -2 -2 -5v-224q0 -3 2 -5q2 -3 6 -3h376zM16 -128q-7 0 -12 5q-4 5 -4 11v240q0 6 4 11q5 5 12 5h184v128h-88q-7 0 -12 4
q-4 5 -4 12v112q0 6 4 11q5 5 12 5h296q6 0 11 -5t5 -11v-512q0 -6 -5 -11t-11 -5h-392zM400 464q3 0 5 2q3 2 3 6v48q0 3 -3 5q-2 3 -5 3h-176q-4 0 -6 -3q-2 -2 -2 -5v-48q0 -4 2 -6t6 -2h176zM216 448q-7 0 -12 4q-4 5 -4 12v64q0 6 4 11q5 5 12 5h192q6 0 11 -5t5 -11
v-64q0 -7 -5 -12q-5 -4 -11 -4h-192z" />
    <glyph glyph-name="k" unicode="k" 
d="M400 16q3 0 5 2q3 2 3 6v184h-56v8h56v176q0 3 -3 5q-2 3 -5 3h-184v-120h-8v240q0 3 -3 5q-2 3 -5 3h-176q-4 0 -6 -3q-2 -2 -2 -5v-496q0 -4 2 -6t6 -2h184v128h8v-128h184zM16 0q-7 0 -12 4q-4 5 -4 12v512q0 6 4 11q5 5 12 5h192q6 0 11 -5t5 -11v-112h184q6 0 11 -5
t5 -11v-384q0 -7 -5 -12q-5 -4 -11 -4h-392z" />
    <glyph glyph-name="l" unicode="l" 
d="M400 16q3 0 5 2q3 2 3 6v96q0 3 -3 5q-2 3 -5 3h-88v392q0 3 -3 5q-2 3 -5 3h-280q-4 0 -6 -3q-2 -2 -2 -5v-96q0 -4 2 -6t6 -2h96v-288h-96q-4 0 -6 -3q-2 -2 -2 -5v-96q0 -4 2 -6t6 -2h376zM16 0q-7 0 -12 4q-4 5 -4 12v112q0 6 4 11q5 5 12 5h88v256h-88q-7 0 -12 4
q-4 5 -4 12v112q0 6 4 11q5 5 12 5h296q6 0 11 -5t5 -11v-384h80q6 0 11 -5t5 -11v-112q0 -7 -5 -12q-5 -4 -11 -4h-392z" />
    <glyph glyph-name="m" unicode="m" 
d="M400 16q3 0 5 2q3 2 3 6v368q0 3 -3 5q-2 3 -5 3h-376q-4 0 -6 -3q-2 -2 -2 -5v-368q0 -4 2 -6t6 -2h120v272h8v-272h128v272h8v-272h112zM16 0q-7 0 -12 4q-4 5 -4 12v384q0 6 4 11q5 5 12 5h392q6 0 11 -5t5 -11v-384q0 -7 -5 -12q-5 -4 -11 -4h-392z" />
    <glyph glyph-name="n" unicode="n" 
d="M400 16q3 0 5 2q3 2 3 6v368q0 3 -3 5q-2 3 -5 3h-376q-4 0 -6 -3q-2 -2 -2 -5v-368q0 -4 2 -6t6 -2h184v272h8v-272h184zM16 0q-7 0 -12 4q-4 5 -4 12v384q0 6 4 11q5 5 12 5h392q6 0 11 -5t5 -11v-384q0 -7 -5 -12q-5 -4 -11 -4h-392z" />
    <glyph glyph-name="o" unicode="o" 
d="M208 128v160h8v-160h-8zM400 16q3 0 5 2q3 2 3 6v368q0 3 -3 5q-2 3 -5 3h-376q-4 0 -6 -3q-2 -2 -2 -5v-368q0 -4 2 -6t6 -2h376zM16 0q-7 0 -12 4q-4 5 -4 12v384q0 6 4 11q5 5 12 5h392q6 0 11 -5t5 -11v-384q0 -7 -5 -12q-5 -4 -11 -4h-392z" />
    <glyph glyph-name="p" unicode="p" 
d="M208 128v160h8v-160h-8zM200 -112q3 0 5 3q3 2 3 5v120h192q3 0 5 2q3 2 3 6v368q0 3 -3 5q-2 3 -5 3h-376q-4 0 -6 -3q-2 -2 -2 -5v-496q0 -3 2 -5q2 -3 6 -3h176zM16 -128q-7 0 -12 5q-4 5 -4 11v512q0 6 4 11q5 5 12 5h392q6 0 11 -5t5 -11v-384q0 -7 -5 -12
q-5 -4 -11 -4h-184v-112q0 -6 -5 -11t-11 -5h-192z" />
    <glyph glyph-name="q" unicode="q" 
d="M208 128v160h8v-160h-8zM400 -112q3 0 5 3q3 2 3 5v496q0 3 -3 5q-2 3 -5 3h-376q-4 0 -6 -3q-2 -2 -2 -5v-368q0 -4 2 -6t6 -2h192v-120q0 -3 2 -5q2 -3 6 -3h176zM216 -128q-7 0 -12 5q-4 5 -4 11v112h-184q-7 0 -12 4q-4 5 -4 12v384q0 6 4 11q5 5 12 5h392q6 0 11 -5
t5 -11v-512q0 -6 -5 -11t-11 -5h-192z" />
    <glyph glyph-name="r" unicode="r" 
d="M208 16q3 0 5 2q3 2 3 6v264h8v-72h176q3 0 5 2q3 2 3 6v168q0 3 -3 5q-2 3 -5 3h-376q-4 0 -6 -3q-2 -2 -2 -5v-368q0 -4 2 -6t6 -2h184zM16 0q-7 0 -12 4q-4 5 -4 12v384q0 6 4 11q5 5 12 5h392q6 0 11 -5t5 -11v-184q0 -7 -5 -12q-5 -4 -11 -4h-176v-184q0 -7 -5 -12
q-5 -4 -11 -4h-200z" />
    <glyph glyph-name="s" unicode="s" 
d="M400 16q3 0 5 2q3 2 3 6v256h-200v8h200v104q0 3 -3 5q-2 3 -5 3h-376q-4 0 -6 -3q-2 -2 -2 -5v-256h200v-8h-200v-104q0 -4 2 -6t6 -2h376zM16 0q-7 0 -12 4q-4 5 -4 12v384q0 6 4 11q5 5 12 5h392q6 0 11 -5t5 -11v-384q0 -7 -5 -12q-5 -4 -11 -4h-392z" />
    <glyph glyph-name="t" unicode="t" 
d="M400 16q3 0 5 2q3 2 3 6v176q0 3 -3 5q-2 3 -5 3h-144v-80h-8v168h104q3 0 5 2q3 2 3 6v88q0 3 -3 5q-2 3 -5 3h-104v120q0 3 -3 5q-2 3 -5 3h-176q-4 0 -6 -3q-2 -2 -2 -5v-120h-32q-4 0 -6 -3q-2 -2 -2 -5v-88q0 -4 2 -6t6 -2h32v-272q0 -4 2 -6t6 -2h336zM56 0
q-7 0 -12 4q-4 5 -4 12v264h-24q-7 0 -12 4q-4 5 -4 12v104q0 6 4 11q5 5 12 5h24v112q0 6 4 11q5 5 12 5h192q6 0 11 -5t5 -11v-112h96q6 0 11 -5t5 -11v-104q0 -7 -5 -12q-5 -4 -11 -4h-96v-56h144q6 0 11 -5t5 -11v-192q0 -7 -5 -12q-5 -4 -11 -4h-352z" />
    <glyph glyph-name="u" unicode="u" 
d="M400 16q3 0 5 2q3 2 3 6v368q0 3 -3 5q-2 3 -5 3h-184v-272h-8v272h-184q-4 0 -6 -3q-2 -2 -2 -5v-368q0 -4 2 -6t6 -2h376zM16 0q-7 0 -12 4q-4 5 -4 12v384q0 6 4 11q5 5 12 5h392q6 0 11 -5t5 -11v-384q0 -7 -5 -12q-5 -4 -11 -4h-392z" />
    <glyph glyph-name="v" unicode="v" 
d="M312 16l96 192v184q0 3 -3 5q-2 3 -5 3h-184v-272h-8v272h-184q-4 0 -6 -3q-2 -2 -2 -5v-184l96 -192h200zM104 0l-104 208v192q0 6 4 11q5 5 12 5h392q6 0 11 -5t5 -11v-192l-104 -208h-216z" />
    <glyph glyph-name="w" unicode="w" 
d="M400 16q3 0 5 2q3 2 3 6v368q0 3 -3 5q-2 3 -5 3h-112v-272h-8v272h-128v-272h-8v272h-120q-4 0 -6 -3q-2 -2 -2 -5v-368q0 -4 2 -6t6 -2h376zM16 0q-7 0 -12 4q-4 5 -4 12v384q0 6 4 11q5 5 12 5h392q6 0 11 -5t5 -11v-384q0 -7 -5 -12q-5 -4 -11 -4h-392z" />
    <glyph glyph-name="x" unicode="x" 
d="M400 16q3 0 5 2q3 2 3 6v184h-56v8h56v176q0 3 -3 5q-2 3 -5 3h-184v-120h-8v120h-184q-4 0 -6 -3q-2 -2 -2 -5v-176h56v-8h-56v-184q0 -4 2 -6t6 -2h184v128h8v-128h184zM16 0q-7 0 -12 4q-4 5 -4 12v384q0 6 4 11q5 5 12 5h392q6 0 11 -5t5 -11v-384q0 -7 -5 -12
q-5 -4 -11 -4h-392z" />
    <glyph glyph-name="y" unicode="y" 
d="M400 -112q3 0 5 3q3 2 3 5v496q0 3 -3 5q-2 3 -5 3h-184v-272h-8v272h-184q-4 0 -6 -3q-2 -2 -2 -5v-392h200v-8h-200v-96q0 -3 2 -5q2 -3 6 -3h376zM16 -128q-7 0 -12 5q-4 5 -4 11v512q0 6 4 11q5 5 12 5h392q6 0 11 -5t5 -11v-512q0 -6 -5 -11t-11 -5h-392z" />
    <glyph glyph-name="z" unicode="z" 
d="M400 16q3 0 5 2q3 2 3 6v104h-200v8h200v256q0 3 -3 5q-2 3 -5 3h-376q-4 0 -6 -3q-2 -2 -2 -5v-104h200v-8h-200v-256q0 -4 2 -6t6 -2h376zM16 0q-7 0 -12 4q-4 5 -4 12v384q0 6 4 11q5 5 12 5h392q6 0 11 -5t5 -11v-384q0 -7 -5 -12q-5 -4 -11 -4h-392z" />
  </font>
</defs>
</svg>
